<svg xmlns="http://www.w3.org/2000/svg" width="17" height="17" viewBox="0 0 17 17">
  <defs>
    <style>
      .cls-1 {
        fill: #343333;
        fill-rule: evenodd;
      }
    </style>
  </defs>
  <path id="call.svg" class="cls-1" d="M1271.01,765.412a13.374,13.374,0,0,1,4.11-9.244l0.06-.053a13.205,13.205,0,0,1,9.48-4.112l0.24,0,0.19,0.152a8.449,8.449,0,0,1,.8.707,8.846,8.846,0,0,1,2.02,3.1,1.218,1.218,0,0,1,.09.477,1.69,1.69,0,0,1-.83,1.508c-1.1.4-2.55,0.9-3.93,1.27a1.766,1.766,0,0,1-1.67-.541l-0.82-1.294a0.984,0.984,0,0,0-.44.176,17.933,17.933,0,0,0-2.03,1.727,18.993,18.993,0,0,0-1.71,2.01,0.783,0.783,0,0,0-.15.4,0.337,0.337,0,0,0,.01.074l1.26,0.787a1.723,1.723,0,0,1,.57,1.357,2.386,2.386,0,0,1-.02.284,18.4,18.4,0,0,1-1.3,4.021,1.75,1.75,0,0,1-1.97.685,8.885,8.885,0,0,1-3.09-2.017,7.784,7.784,0,0,1-.71-0.808l-0.15-.19-0.01-.489h0Zm13.37-11.949a12.018,12.018,0,0,0-8.17,3.688l-0.07.072a11.86,11.86,0,0,0-3.67,8.156c0.15,0.172.29,0.335,0.44,0.486a7.518,7.518,0,0,0,2.59,1.686c0.01-.007.1-0.036,0.17-0.068a17.314,17.314,0,0,0,1.14-3.593c-0.01-.037-0.02-0.112-0.04-0.172l-1.16-.734a1.806,1.806,0,0,1-.22-2.544,19.413,19.413,0,0,1,1.86-2.181,20.028,20.028,0,0,1,2.19-1.874,2.08,2.08,0,0,1,1.6-.4,1.43,1.43,0,0,1,.95.632l0.73,1.158a0.859,0.859,0,0,0,.2.028c1.2-.321,2.52-0.777,3.57-1.153a0.756,0.756,0,0,0,.04-0.2,7.449,7.449,0,0,0-1.67-2.546q-0.225-.221-0.48-0.439h0Zm-5.83,11.878a0.715,0.715,0,0,1,.24-0.535,0.726,0.726,0,0,1,1.03.036l1.26,1.35,1.26-1.35a0.731,0.731,0,0,1,1.07,1l-1.8,1.926a0.731,0.731,0,0,1-1.07,0l-1.79-1.926a0.734,0.734,0,0,1-.2-0.5h0Zm1.8,1.468v-5.735a0.73,0.73,0,1,1,1.46,0v5.735a0.73,0.73,0,1,1-1.46,0h0Zm2.41-3.81a0.731,0.731,0,0,1,.19-0.5l1.8-1.925a0.731,0.731,0,0,1,1.07,0l1.79,1.925a0.732,0.732,0,0,1-1.07,1l-1.26-1.351-1.26,1.351a0.726,0.726,0,0,1-1.03.037,0.746,0.746,0,0,1-.23-0.536h0Zm1.79,4.267v-5.735a0.73,0.73,0,1,1,1.46,0v5.735a0.73,0.73,0,1,1-1.46,0h0Z" transform="translate(-1271 -752)"/>
</svg>
