<svg xmlns="http://www.w3.org/2000/svg" width="23.031" height="16.75" viewBox="0 0 23.031 16.75">
  <defs>
    <style>
      .cls-1 {
        fill: #fff;
        fill-rule: evenodd;
      }
    </style>
  </defs>
  <path id="eye.svg" class="cls-1" d="M489.269,3322.44a12.183,12.183,0,0,1-22.928,0,1,1,0,0,1,0-.62,12.178,12.178,0,0,1,22.928,0A0.981,0.981,0,0,1,489.269,3322.44Zm-11.465-6.69a6.877,6.877,0,1,0,9.457,6.38A9.938,9.938,0,0,0,477.8,3315.75Zm0,11.8a5.424,5.424,0,0,1-5.417-5.42,1,1,0,1,1,2,0,3.417,3.417,0,1,0,3.418-3.42,1,1,0,0,1,0-2A5.42,5.42,0,0,1,477.8,3327.55Z" transform="translate(-466.313 -3313.75)"/>
</svg>
