<svg xmlns="http://www.w3.org/2000/svg" width="14.031" height="14" viewBox="0 0 14.031 14">
  <defs>
    <style>
      .cls-1 {
        fill: #fc0;
        fill-rule: evenodd;
      }
    </style>
  </defs>
  <path id="ftell.svg" class="cls-1" d="M879.048,863.991a11.014,11.014,0,0,1-7.616-3.387l-0.043-.046h0a10.9,10.9,0,0,1-3.389-7.8l0-.2,0.125-.158a7.265,7.265,0,0,1,.584-0.661,7.348,7.348,0,0,1,2.556-1.662,1.07,1.07,0,0,1,.393-0.069,1.388,1.388,0,0,1,1.243.676c0.329,0.913.744,2.1,1.046,3.243a1.436,1.436,0,0,1-.445,1.374l-1.066.676a0.8,0.8,0,0,0,.144.364,13.772,13.772,0,0,0,3.079,3.074,0.6,0.6,0,0,0,.333.126l0.369-.514,0.34-.534a1.438,1.438,0,0,1,1.118-.471,1.052,1.052,0,0,1,.234.024,15.148,15.148,0,0,1,3.312,1.067,1.433,1.433,0,0,1,.564,1.619,7.338,7.338,0,0,1-1.66,2.549,7.632,7.632,0,0,1-.666.585l-0.157.123-0.4.007h0ZM869.2,852.984a9.894,9.894,0,0,0,3.039,6.726l0.058,0.059a9.8,9.8,0,0,0,6.72,3.018q0.212-.177.4-0.364a6.146,6.146,0,0,0,1.389-2.133c-0.007,0-.031-0.078-0.056-0.137a14.094,14.094,0,0,0-2.96-.937,1.111,1.111,0,0,0-.142.03l-0.607.954a1.48,1.48,0,0,1-2.094.182,16.089,16.089,0,0,1-1.8-1.529,16.569,16.569,0,0,1-1.545-1.806,1.708,1.708,0,0,1-.331-1.318,1.165,1.165,0,0,1,.521-0.778l0.953-.6a0.624,0.624,0,0,0,.024-0.166c-0.265-.986-0.64-2.074-0.95-2.939a0.537,0.537,0,0,0-.164-0.035,6.177,6.177,0,0,0-2.1,1.378c-0.123.123-.242,0.254-0.363,0.4h0Z" transform="translate(-868 -850)"/>
</svg>
