<svg xmlns="http://www.w3.org/2000/svg" width="23.5" height="23.5" viewBox="0 0 23.5 23.5">
  <defs>
    <style>
      .cls-1 {
        fill: #fc0;
        fill-rule: evenodd;
      }
    </style>
  </defs>
  <path id="install.svg" class="cls-1" d="M587.521,3333.85h-2.57a1.7,1.7,0,0,1-1.7-1.7v-1.66l-0.8-.31-1.211,1.14a1.745,1.745,0,0,1-2.4,0l-1.819-1.82a1.7,1.7,0,0,1,0-2.41l1.172-1.17-0.344-.79-1.664-.04a1.708,1.708,0,0,1-1.7-1.7v-2.57a1.71,1.71,0,0,1,1.7-1.71h1.664l0.309-.79-1.141-1.21a1.7,1.7,0,0,1-.5-1.21,1.681,1.681,0,0,1,.5-1.2l1.815-1.82a1.748,1.748,0,0,1,2.406,0l1.174,1.18,0.783-.35,0.049-1.66a1.7,1.7,0,0,1,1.7-1.7h2.57a1.7,1.7,0,0,1,1.7,1.7v1.67l0.8,0.3,1.209-1.14a1.691,1.691,0,0,1,1.2-.49h0a1.688,1.688,0,0,1,1.2.49l1.819,1.82a1.707,1.707,0,0,1,0,2.41l-1.174,1.17,0.346,0.79,1.664,0.04a1.708,1.708,0,0,1,1.7,1.71v2.57a1.706,1.706,0,0,1-1.7,1.7h-1.664l-0.311.8,1.141,1.21a1.66,1.66,0,0,1,.5,1.2,1.687,1.687,0,0,1-.5,1.2l-1.813,1.82a1.745,1.745,0,0,1-2.4,0l-1.18-1.18-0.783.35-0.047,1.66a1.7,1.7,0,0,1-1.7,1.7h0Zm-2.271-2h1.974v-1.36a2.04,2.04,0,0,1,1.346-1.87l0.688-.29a1.8,1.8,0,0,1,.791-0.17,2.013,2.013,0,0,1,1.419.57l0.965,0.96,1.395-1.39-0.965-.97a2.043,2.043,0,0,1-.369-2.27l0.281-.69a2.025,2.025,0,0,1,1.848-1.28h1.363v-1.98h-1.363a2.047,2.047,0,0,1-1.873-1.35l-0.286-.68a2.032,2.032,0,0,1,.4-2.21l0.967-.97-1.395-1.39-0.965.96a2.076,2.076,0,0,1-2.277.37l-0.685-.28a2.016,2.016,0,0,1-1.282-1.84v-1.37H585.25v1.37a2.051,2.051,0,0,1-1.35,1.87l-0.684.28a1.811,1.811,0,0,1-.792.17,2.012,2.012,0,0,1-1.421-.57l-0.962-.96-1.4,1.39,0.963,0.97a2.041,2.041,0,0,1,.369,2.27l-0.277.69a2.021,2.021,0,0,1-1.85,1.28h-1.365v1.98h1.365a2.057,2.057,0,0,1,1.873,1.34l0.285,0.69a2.03,2.03,0,0,1-.4,2.21l-0.965.97,1.4,1.39,0.962-.96a2.077,2.077,0,0,1,2.278-.37l0.685,0.28a2,2,0,0,1,1.284,1.85v1.36h0Zm0.986-5.36a4.39,4.39,0,1,1,4.389-4.39,4.395,4.395,0,0,1-4.389,4.39h0Zm0-6.78a2.39,2.39,0,1,0,2.389,2.39,2.39,2.39,0,0,0-2.389-2.39h0Z" transform="translate(-574.5 -3310.34)"/>
</svg>
