<svg xmlns="http://www.w3.org/2000/svg" width="14" height="10" viewBox="0 0 14 10">
  <defs>
    <style>
      .cls-1 {
        fill: #fc0;
        fill-rule: evenodd;
      }
    </style>
  </defs>
  <path id="mail.svg" class="cls-1" d="M880.559,810.008H869.442A1.434,1.434,0,0,1,868,808.586v-7.16a1.433,1.433,0,0,1,1.443-1.421h11.117A1.434,1.434,0,0,1,882,801.426v7.16A1.435,1.435,0,0,1,880.559,810.008ZM875,806.293l5.714-5.017a0.215,0.215,0,0,0-.156-0.066H869.442a0.221,0.221,0,0,0-.156.066Zm5.777-4.265-3.391,2.978,3.391,2.978v-5.956ZM869.442,808.8h11.117a0.221,0.221,0,0,0,.156-0.066l-3.788-3.326-1.722,1.512a0.309,0.309,0,0,1-.408,0l-1.722-1.512-3.789,3.326A0.221,0.221,0,0,0,869.442,808.8Zm3.172-3.8-3.391-2.978v5.956Z" transform="translate(-868 -800)"/>
</svg>
