<svg xmlns="http://www.w3.org/2000/svg" width="14" height="14" viewBox="0 0 14 14">
  <defs>
    <style>
      .cls-1 {
        fill: #fc0;
        fill-rule: evenodd;
      }
    </style>
  </defs>
  <path id="man.svg" class="cls-1" d="M875,761a36.555,36.555,0,0,1-5.477-.415,1.714,1.714,0,0,1-1.362-1.433q-0.081-.723-0.154-1.451a1.87,1.87,0,0,1,1-1.745,14.333,14.333,0,0,1,3.7-1.1l-0.02-.133a1.521,1.521,0,0,1-.606-0.981c-0.012-.112-0.026-0.226-0.04-0.341a0.855,0.855,0,0,1-.535-0.692l-0.15-1.369a0.809,0.809,0,0,1,.191-0.617,0.831,0.831,0,0,1,.151-0.139l-0.047-.412a2.5,2.5,0,0,1,.73-2.291,4.322,4.322,0,0,1,5.255.019,2.483,2.483,0,0,1,.708,2.269l-0.01.113c-0.012.1-.025,0.2-0.037,0.3a0.878,0.878,0,0,1,.148.138,0.811,0.811,0,0,1,.192.621l-0.149,1.367a0.843,0.843,0,0,1-.536.693l-0.045.356a1.492,1.492,0,0,1-.6.965l-0.02.133a14.248,14.248,0,0,1,3.678,1.09,1.879,1.879,0,0,1,1.023,1.758l-0.15,1.447a1.718,1.718,0,0,1-1.351,1.432A36.632,36.632,0,0,1,875,761h0Zm-2.3-8.782a0.666,0.666,0,0,1,.088.022,0.6,0.6,0,0,1,.42.489c0.037,0.3.073,0.6,0.108,0.9a0.688,0.688,0,0,0,.283.275,0.589,0.589,0,0,1,.282.417l0.14,0.954a0.566,0.566,0,0,1-.121.443,0.626,0.626,0,0,1-.419.226,13.137,13.137,0,0,0-3.924,1.069,0.712,0.712,0,0,0-.318.579c0.047,0.485.1,0.964,0.152,1.443a0.521,0.521,0,0,0,.341.394,35.226,35.226,0,0,0,10.544,0,0.517,0.517,0,0,0,.329-0.391l0.149-1.44a0.717,0.717,0,0,0-.341-0.592,13.1,13.1,0,0,0-3.9-1.059,0.621,0.621,0,0,1-.418-0.226,0.561,0.561,0,0,1-.122-0.441l0.145-.961a0.586,0.586,0,0,1,.279-0.41,0.684,0.684,0,0,0,.279-0.275l0.111-.9a0.594,0.594,0,0,1,.421-0.488,0.678,0.678,0,0,1,.086-0.022l0.072-.654a0.623,0.623,0,0,1-.1-0.052,0.576,0.576,0,0,1-.265-0.556l0.007-.059c0.031-.24.062-0.479,0.09-0.72l0.01-.12a1.411,1.411,0,0,0-.32-1.3,3.048,3.048,0,0,0-3.559-.019,1.416,1.416,0,0,0-.342,1.318l0.106,0.9a0.576,0.576,0,0,1-.27.554,0.532,0.532,0,0,1-.094.05l0.071,0.654h0Z" transform="translate(-868 -747)"/>
</svg>
