<svg xmlns="http://www.w3.org/2000/svg" width="14" height="16" viewBox="0 0 14 16">
  <defs>
    <style>
      .cls-1 {
        fill: #464646;
        fill-rule: evenodd;
      }
    </style>
  </defs>
  <path id="mlet.svg" class="cls-1" d="M217.555,5368H206.438a1.461,1.461,0,0,1-1.443-1.48v-8.31a0.627,0.627,0,0,1,.215-0.47l6.416-5.6a0.6,0.6,0,0,1,.795,0l6.364,5.6a0.629,0.629,0,0,1,.213.47v8.31a1.461,1.461,0,0,1-1.443,1.48h0Zm-11.336-9.5v8.02a0.223,0.223,0,0,0,.219.23h11.117a0.223,0.223,0,0,0,.219-0.23v-8.02l-5.753-5.06-5.8,5.06h0Zm11.336,9.19H206.438a1.139,1.139,0,0,1-1.061-.76,0.312,0.312,0,0,1,.083-0.34l6.333-5.79a0.293,0.293,0,0,1,.408,0l6.333,5.79a0.313,0.313,0,0,1,.082.34,1.137,1.137,0,0,1-1.061.76h0Zm-11.5-.8a0.5,0.5,0,0,0,.384.17h11.117a0.507,0.507,0,0,0,.385-0.17L212,5361.45l-5.943,5.44h0Zm7.892-3.8a0.3,0.3,0,0,1-.228-0.11,0.315,0.315,0,0,1,.024-0.44l4.384-4.01a0.305,0.305,0,0,1,.432.03,0.315,0.315,0,0,1-.024.44l-4.384,4.01a0.322,0.322,0,0,1-.2.08h0Zm-3.866.03a0.317,0.317,0,0,1-.2-0.08L205.46,5359a0.316,0.316,0,0,1-.025-0.44,0.305,0.305,0,0,1,.432-0.03l4.417,4.04a0.316,0.316,0,0,1,.025.44,0.306,0.306,0,0,1-.229.11h0Zm1.916-3.08a0.61,0.61,0,0,1-.433-0.18l-1.683-1.73a0.63,0.63,0,0,1,0-.88,0.594,0.594,0,0,1,.866,0l1.25,1.28,1.25-1.28a0.594,0.594,0,0,1,.866,0,0.63,0.63,0,0,1,0,.88l-1.683,1.73a0.611,0.611,0,0,1-.433.18h0Zm0-.47a0.62,0.62,0,0,1-.612-0.63v-3.09a0.612,0.612,0,1,1,1.224,0v3.09a0.62,0.62,0,0,1-.612.63h0Z" transform="translate(-205 -5352)"/>
</svg>
