<svg xmlns="http://www.w3.org/2000/svg" width="14" height="16" viewBox="0 0 14 16">
  <defs>
    <style>
      .cls-1 {
        fill: #464646;
        fill-rule: evenodd;
      }
    </style>
  </defs>
  <path id="mloc.svg" class="cls-1" d="M212,5314a0.671,0.671,0,0,1-.442-0.16c-0.67-.55-6.549-5.5-6.549-9.08a6.995,6.995,0,0,1,13.982,0c0,3.58-5.877,8.53-6.549,9.08a0.667,0.667,0,0,1-.442.16h0Zm0-14.68a5.542,5.542,0,0,0-5.627,5.44c0,2.32,3.723,6.04,5.627,7.7,1.905-1.66,5.627-5.38,5.627-7.7a5.542,5.542,0,0,0-5.627-5.44h0Zm0,9.54a4.1,4.1,0,1,1,4.234-4.1,4.174,4.174,0,0,1-4.234,4.1h0Zm0-7.53a3.437,3.437,0,1,0,3.552,3.43,3.5,3.5,0,0,0-3.552-3.43h0Zm0,1.2a2.231,2.231,0,1,0,2.3,2.23,2.267,2.267,0,0,0-2.3-2.23h0Z" transform="translate(-205 -5298)"/>
</svg>
