<svg xmlns="http://www.w3.org/2000/svg" width="15.031" height="15" viewBox="0 0 15.031 15">
  <defs>
    <style>
      .cls-1 {
        fill: #464646;
        fill-rule: evenodd;
      }
    </style>
  </defs>
  <path id="mtel.svg" class="cls-1" d="M216.837,5417.99a11.785,11.785,0,0,1-8.16-3.63l-0.046-.05h0a11.681,11.681,0,0,1-3.631-8.36l0-.21,0.133-.17a6.649,6.649,0,0,1,.626-0.71,7.91,7.91,0,0,1,2.738-1.78,1.141,1.141,0,0,1,.422-0.08,1.487,1.487,0,0,1,1.331.73c0.353,0.98.8,2.25,1.122,3.47a1.531,1.531,0,0,1-.478,1.47l-1.142.73a0.837,0.837,0,0,0,.154.39,16.979,16.979,0,0,0,1.525,1.78,15.374,15.374,0,0,0,1.774,1.51,0.625,0.625,0,0,0,.357.14l0.4-.55,0.364-.58a1.534,1.534,0,0,1,1.2-.5,0.968,0.968,0,0,1,.25.03,15.97,15.97,0,0,1,3.549,1.14,1.528,1.528,0,0,1,.6,1.73,7.81,7.81,0,0,1-1.779,2.73,8.664,8.664,0,0,1-.713.63l-0.168.13-0.432.01h0ZM206.29,5406.2a10.579,10.579,0,0,0,3.256,7.2l0.062,0.07a10.5,10.5,0,0,0,7.2,3.23c0.151-.13.3-0.26,0.43-0.39a6.569,6.569,0,0,0,1.488-2.28c-0.007-.01-0.033-0.09-0.06-0.15a15.357,15.357,0,0,0-3.172-1.01c-0.033.01-.1,0.02-0.152,0.04l-0.65,1.02a1.581,1.581,0,0,1-2.243.19,16.284,16.284,0,0,1-1.925-1.64,17.155,17.155,0,0,1-1.656-1.93,1.825,1.825,0,0,1-.354-1.41,1.209,1.209,0,0,1,.558-0.83l1.021-.65a0.682,0.682,0,0,0,.025-0.18c-0.283-1.06-.685-2.22-1.018-3.15a0.587,0.587,0,0,0-.175-0.04,6.651,6.651,0,0,0-2.246,1.48,5.37,5.37,0,0,0-.389.43h0Z" transform="translate(-205 -5403)"/>
</svg>
