<svg xmlns="http://www.w3.org/2000/svg" width="15" height="15" viewBox="0 0 15 15">
  <defs>
    <style>
      .cls-1 {
        fill: #464646;
        fill-rule: evenodd;
      }
    </style>
  </defs>
  <path id="mtime.svg" class="cls-1" d="M212.5,5470.01a7.505,7.505,0,1,1,7.5-7.51,7.513,7.513,0,0,1-7.5,7.51h0Zm0-13.73a6.22,6.22,0,1,0,6.209,6.22,6.223,6.223,0,0,0-6.209-6.22h0Zm0,6.87a0.645,0.645,0,0,1-.643-0.65v-4.64a0.643,0.643,0,0,1,1.285,0v4.64a0.645,0.645,0,0,1-.642.65h0Zm0-6.45a0.643,0.643,0,0,1-.643-0.64v-0.42a0.643,0.643,0,0,1,1.285,0v0.42a0.643,0.643,0,0,1-.642.64h0Zm0,13.31a0.643,0.643,0,0,1-.643-0.64v-0.42a0.643,0.643,0,0,1,1.285,0v0.42a0.643,0.643,0,0,1-.642.64h0Zm6.852-6.86h-0.417a0.645,0.645,0,0,1,0-1.29h0.417a0.645,0.645,0,0,1,0,1.29h0Zm-13.291,0h-0.416a0.645,0.645,0,0,1,0-1.29h0.416a0.645,0.645,0,0,1,0,1.29h0Zm9.36-5.39a0.333,0.333,0,0,1-.278-0.49l0.188-.32a0.315,0.315,0,0,1,.439-0.12,0.322,0.322,0,0,1,.118.44l-0.188.32a0.318,0.318,0,0,1-.279.17h0Zm-6.034,10.46a0.309,0.309,0,0,1-.16-0.04,0.325,0.325,0,0,1-.119-0.44l0.189-.33a0.321,0.321,0,1,1,.557.32l-0.188.33a0.329,0.329,0,0,1-.279.16h0Zm8.5-2.28a0.3,0.3,0,0,1-.16-0.04l-0.327-.19a0.322,0.322,0,0,1,.32-0.56l0.327,0.19a0.322,0.322,0,0,1,.118.44,0.326,0.326,0,0,1-.278.16h0Zm-10.451-6.04a0.313,0.313,0,0,1-.159-0.05l-0.329-.18a0.324,0.324,0,0,1-.119-0.44,0.315,0.315,0,0,1,.438-0.12l0.328,0.19a0.319,0.319,0,0,1,.12.44,0.327,0.327,0,0,1-.279.16h0Zm2.139-2.14a0.317,0.317,0,0,1-.279-0.17l-0.188-.32a0.322,0.322,0,0,1,.118-0.44,0.316,0.316,0,0,1,.439.12l0.188,0.32a0.333,0.333,0,0,1-.278.49h0Zm6.036,10.46a0.308,0.308,0,0,1-.278-0.16l-0.191-.33a0.321,0.321,0,1,1,.557-0.32l0.19,0.33a0.324,0.324,0,0,1-.116.44,0.314,0.314,0,0,1-.162.04h0Zm-8.5-2.28a0.329,0.329,0,0,1-.279-0.16,0.322,0.322,0,0,1,.121-0.44l0.328-.19a0.322,0.322,0,0,1,.318.56l-0.329.19a0.3,0.3,0,0,1-.159.04h0Zm10.453-6.04a0.326,0.326,0,0,1-.278-0.16,0.321,0.321,0,0,1,.118-0.44l0.326-.19a0.316,0.316,0,0,1,.439.12,0.323,0.323,0,0,1-.118.44l-0.326.18a0.323,0.323,0,0,1-.161.05h0Zm-7,5.19a0.623,0.623,0,0,1-.454-0.19,0.644,0.644,0,0,1,0-.91l1.865-1.87a0.643,0.643,0,0,1,.908.91l-1.865,1.87a0.623,0.623,0,0,1-.454.19h0Z" transform="translate(-205 -5455)"/>
</svg>
