<svg xmlns="http://www.w3.org/2000/svg" width="15" height="17" viewBox="0 0 15 17">
  <defs>
    <style>
      .cls-1 {
        fill: #fc0;
        fill-rule: evenodd;
      }
    </style>
  </defs>
  <path id="resms.svg" class="cls-1" d="M1286.63,948.757v13.5a1.382,1.382,0,0,1-.88,1.289,0.359,0.359,0,0,1-.4-0.1l-4.6-5.268a0.372,0.372,0,0,1,.03-0.525,0.353,0.353,0,0,1,.51.03l4.41,5.041a0.665,0.665,0,0,0,.2-0.466v-13.5a0.663,0.663,0,0,0-.2-0.466l-4.46,5.1a0.354,0.354,0,0,1-.51.029,0.37,0.37,0,0,1-.03-0.524l4.65-5.327a0.357,0.357,0,0,1,.4-0.1,1.378,1.378,0,0,1,.88,1.288h0Zm-5.9,6.749a0.571,0.571,0,0,1-.16.406l-2.18,2.227a0.559,0.559,0,0,1-.8,0,0.584,0.584,0,0,1,0-.814l1.78-1.82-1.78-1.82a0.583,0.583,0,0,1,0-.813,0.558,0.558,0,0,1,.8,0l2.18,2.227a0.573,0.573,0,0,1,.16.406h0Zm-0.59,0a0.57,0.57,0,0,1-.57.576h-7a0.576,0.576,0,0,1,0-1.151h7a0.569,0.569,0,0,1,.57.575h0Zm6.85-6.749v13.5a1.737,1.737,0,0,1-1.72,1.752h-8.65a1.737,1.737,0,0,1-1.72-1.752V957.5a0.73,0.73,0,1,1,1.46,0v4.752a0.266,0.266,0,0,0,.26.266h8.65a0.268,0.268,0,0,0,.27-0.266v-13.5a0.267,0.267,0,0,0-.27-0.266h-8.65a0.265,0.265,0,0,0-.26.266v4.752a0.73,0.73,0,1,1-1.46,0v-4.752a1.737,1.737,0,0,1,1.72-1.752h8.65a1.737,1.737,0,0,1,1.72,1.752h0Zm-3.64,6.749a0.383,0.383,0,0,1-.09.248l-6.72,7.69a0.353,0.353,0,0,1-.51.03,0.37,0.37,0,0,1-.03-0.524l6.5-7.444-6.5-7.442a0.372,0.372,0,0,1,.03-0.525,0.354,0.354,0,0,1,.51.03l6.72,7.69a0.38,0.38,0,0,1,.09.247h0Z" transform="translate(-1272 -947)"/>
</svg>
