<svg xmlns="http://www.w3.org/2000/svg" width="15" height="15" viewBox="0 0 15 15">
  <defs>
    <style>
      .cls-1 {
        fill: #464646;
        fill-rule: evenodd;
      }
    </style>
  </defs>
  <path id="time.svg" class="cls-1" d="M733,22.5a7.5,7.5,0,1,1-14.993,0h0A7.5,7.5,0,1,1,733,22.5h0Zm-1.34-.573A6.094,6.094,0,0,0,731,19.7l-0.271.156a0.322,0.322,0,1,1-.321-0.557l0.269-.156a6.267,6.267,0,0,0-1.817-1.816l-0.154.269a0.321,0.321,0,1,1-.557-0.321L728.3,17a6.141,6.141,0,0,0-2.231-.659,0.631,0.631,0,0,1-1.139,0A6.079,6.079,0,0,0,722.7,17l0.156,0.272a0.321,0.321,0,1,1-.557.321l-0.155-.27a6.257,6.257,0,0,0-1.816,1.817L720.6,19.3a0.322,0.322,0,0,1-.159.6,0.314,0.314,0,0,1-.159-0.042l-0.277-.159a6.176,6.176,0,0,0-.66,2.234,0.634,0.634,0,0,1,0,1.145,6.1,6.1,0,0,0,.661,2.234l0.276-.158a0.322,0.322,0,0,1,.318.559l-0.271.155a6.267,6.267,0,0,0,1.817,1.816l0.154-.269a0.321,0.321,0,0,1,.557.321l-0.157.273a6.151,6.151,0,0,0,2.233.659,0.631,0.631,0,0,1,1.139,0A6.077,6.077,0,0,0,728.3,28l-0.157-.27a0.322,0.322,0,0,1,.556-0.323l0.157,0.27a6.249,6.249,0,0,0,1.813-1.817l-0.268-.154a0.322,0.322,0,0,1,.32-0.558L731,25.308a6.156,6.156,0,0,0,.66-2.234A0.633,0.633,0,0,1,731.658,21.93Zm-5.748,1.06c-0.012.014-.017,0.032-0.03,0.045L724.015,24.9a0.643,0.643,0,1,1-.908-0.91l1.753-1.755V17.86a0.643,0.643,0,1,1,1.285,0V22.5A0.632,0.632,0,0,1,725.91,22.99Z" transform="translate(-718 -15)"/>
</svg>
