<svg xmlns="http://www.w3.org/2000/svg" width="14" height="16" viewBox="0 0 14 16">
  <defs>
    <style>
      .cls-1 {
        fill: #464646;
        fill-rule: evenodd;
      }
    </style>
  </defs>
  <path id="tloc.svg" class="cls-1" d="M412,32a0.693,0.693,0,0,1-.442-0.158c-0.67-.553-6.549-5.5-6.549-9.079a6.995,6.995,0,0,1,13.982,0c0,3.574-5.878,8.526-6.549,9.079A0.689,0.689,0,0,1,412,32h0Zm0-14.68a5.544,5.544,0,0,0-5.627,5.444c0,2.317,3.723,6.039,5.627,7.7,1.905-1.659,5.627-5.381,5.627-7.7A5.544,5.544,0,0,0,412,17.318h0Zm0,9.54a4.1,4.1,0,1,1,4.234-4.1,4.171,4.171,0,0,1-4.234,4.1h0Zm0-7.532a3.438,3.438,0,1,0,3.552,3.436A3.5,3.5,0,0,0,412,19.325h0Zm0,1.21a2.228,2.228,0,1,0,2.3,2.227,2.264,2.264,0,0,0-2.3-2.227h0Z" transform="translate(-405 -16)"/>
</svg>
