<svg xmlns="http://www.w3.org/2000/svg" width="14" height="16" viewBox="0 0 14 16">
  <defs>
    <style>
      .cls-1 {
        fill: #464646;
        fill-rule: evenodd;
      }
    </style>
  </defs>
  <path id="tmail.svg" class="cls-1" d="M927.555,30H916.438A1.464,1.464,0,0,1,915,28.522V20.215a0.636,0.636,0,0,1,.215-0.478l6.416-5.6a0.6,0.6,0,0,1,.8,0l6.364,5.6a0.634,0.634,0,0,1,.213.476v8.308A1.463,1.463,0,0,1,927.555,30Zm-11.117-1.255h11.117a0.215,0.215,0,0,0,.156-0.069L922,23.453l-1.681,1.537c0,0.007,0,.016-0.007.023a0.277,0.277,0,0,1-.035.016l-3.992,3.65A0.216,0.216,0,0,0,916.438,28.747Zm-0.219-.852,3.391-3.1-3.391-3.1v6.2ZM927.774,20.5l-5.753-5.058-5.8,5.06v0.349l3.851,3.521,1.723-1.576a0.3,0.3,0,0,1,.408,0l1.722,1.575,3.851-3.52V20.5Zm0,1.191-3.391,3.1,3.391,3.1v-6.2ZM922,22.042a0.6,0.6,0,0,1-.433-0.184l-1.683-1.724a0.638,0.638,0,0,1,0-.887,0.6,0.6,0,0,1,.866,0l0.638,0.654V17.855a0.612,0.612,0,1,1,1.224,0V19.9l0.638-.654a0.6,0.6,0,0,1,.866,0,0.638,0.638,0,0,1,0,.887l-1.683,1.724A0.605,0.605,0,0,1,922,22.042Z" transform="translate(-915 -14)"/>
</svg>
