<svg xmlns="http://www.w3.org/2000/svg" width="15" height="15" viewBox="0 0 15 15">
  <defs>
    <style>
      .cls-1 {
        fill: #464646;
        fill-rule: evenodd;
      }
    </style>
  </defs>
  <path id="ttime.svg" class="cls-1" d="M725.5,30.01A7.507,7.507,0,1,1,733,22.5a7.511,7.511,0,0,1-7.5,7.506h0Zm0-13.726a6.22,6.22,0,1,0,6.209,6.22,6.223,6.223,0,0,0-6.209-6.22h0Zm0,6.863a0.643,0.643,0,0,1-.643-0.643V17.86a0.643,0.643,0,1,1,1.285,0V22.5a0.642,0.642,0,0,1-.642.643h0Zm0-6.446a0.643,0.643,0,0,1-.643-0.643V15.64a0.643,0.643,0,1,1,1.285,0v0.417a0.643,0.643,0,0,1-.642.643h0Zm0,13.309a0.643,0.643,0,0,1-.643-0.643V28.949a0.643,0.643,0,1,1,1.285,0v0.418a0.643,0.643,0,0,1-.642.643h0Zm6.852-6.864h-0.417a0.643,0.643,0,0,1,0-1.287h0.417a0.643,0.643,0,0,1,0,1.287h0Zm-13.291,0h-0.416a0.643,0.643,0,0,1,0-1.287h0.416a0.643,0.643,0,0,1,0,1.287h0Zm9.36-5.39a0.321,0.321,0,0,1-.278-0.482l0.188-.327a0.321,0.321,0,1,1,.557.321l-0.188.328a0.321,0.321,0,0,1-.279.161h0ZM722.39,28.222a0.321,0.321,0,0,1-.278-0.482l0.188-.329a0.321,0.321,0,0,1,.557.321l-0.188.328a0.322,0.322,0,0,1-.279.162h0Zm8.5-2.283a0.316,0.316,0,0,1-.16-0.043l-0.327-.187a0.322,0.322,0,0,1,.32-0.558l0.327,0.187a0.322,0.322,0,0,1,.118.439,0.319,0.319,0,0,1-.278.162h0ZM720.441,19.9a0.314,0.314,0,0,1-.159-0.042l-0.329-.189a0.322,0.322,0,0,1,.319-0.558L720.6,19.3a0.322,0.322,0,0,1-.159.6h0Zm2.139-2.141a0.321,0.321,0,0,1-.279-0.161l-0.188-.328a0.321,0.321,0,1,1,.557-0.321l0.188,0.327a0.321,0.321,0,0,1-.278.482h0Zm6.036,10.467a0.322,0.322,0,0,1-.278-0.16l-0.191-.329a0.322,0.322,0,0,1,.556-0.323l0.191,0.329a0.322,0.322,0,0,1-.117.439,0.317,0.317,0,0,1-.161.044h0Zm-8.5-2.283a0.322,0.322,0,0,1-.158-0.6l0.328-.187a0.322,0.322,0,0,1,.318.559l-0.329.188a0.324,0.324,0,0,1-.159.042h0ZM730.565,19.9a0.322,0.322,0,0,1-.16-0.6l0.326-.189a0.322,0.322,0,0,1,.321.558l-0.326.188a0.322,0.322,0,0,1-.161.043h0Zm-7,5.193a0.643,0.643,0,0,1-.454-1.1l1.865-1.867a0.643,0.643,0,0,1,.908.91L724.015,24.9a0.64,0.64,0,0,1-.454.188h0Z" transform="translate(-718 -15)"/>
</svg>
